<?xml version="1.0" encoding="UTF-8" standalone="no"?>
<!-- Created with Inkscape (http://www.inkscape.org/) -->

<svg
   width="226.68149mm"
   height="225.73534mm"
   viewBox="0 0 226.68149 225.73534"
   version="1.1"
   id="svg1"
   xml:space="preserve"
   inkscape:version="1.4 (e7c3feb100, 2024-10-09)"
   sodipodi:docname="cupri.svg"
   xmlns:inkscape="http://www.inkscape.org/namespaces/inkscape"
   xmlns:sodipodi="http://sodipodi.sourceforge.net/DTD/sodipodi-0.dtd"
   xmlns="http://www.w3.org/2000/svg"
   xmlns:svg="http://www.w3.org/2000/svg"><sodipodi:namedview
     id="namedview1"
     pagecolor="#ffffff"
     bordercolor="#000000"
     borderopacity="0.25"
     inkscape:showpageshadow="2"
     inkscape:pageopacity="0.0"
     inkscape:pagecheckerboard="0"
     inkscape:deskcolor="#d1d1d1"
     inkscape:document-units="mm"
     inkscape:zoom="0.90509668"
     inkscape:cx="354.10582"
     inkscape:cy="378.41261"
     inkscape:window-width="1920"
     inkscape:window-height="1043"
     inkscape:window-x="0"
     inkscape:window-y="0"
     inkscape:window-maximized="1"
     inkscape:current-layer="layer1" /><defs
     id="defs1" /><g
     inkscape:label="Layer 1"
     inkscape:groupmode="layer"
     id="layer1"
     transform="translate(9.3857404,-18.319514)"><path
       id="path2-6"
       style="display:inline;fill:#26191a;fill-opacity:1;stroke:#000000;stroke-width:20;stroke-linecap:round;stroke-linejoin:round;stroke-miterlimit:35.2;stroke-dasharray:none;stroke-opacity:1;paint-order:stroke fill markers"
       d="m 102.56832,28.333034 c -28.57856,0.271317 -63.759146,4.792837 -68.823706,7.68687 -5.06455,2.894031 -7.68739,6.783048 -7.68739,6.783048 l -2.514521,14.329779 c -4.3903,7.506606 -6.018358,12.639894 -6.802723,17.062651 -0.784364,4.422757 0.05479,11.013695 0.558939,15.521923 -0.905885,8.165192 -5.124585,11.302465 -7.8825351,17.839835 -4.88368,11.57612 -8.77258997,26.58856 -8.77258997,26.58856 0,0 -0.2217,25.94961 0.54983997,33.27135 -0.67868997,1.76373 -0.36896997,3.11506 -0.36896997,3.11506 L 1.0835539,171.099 v 62.95585 H 24.597374 v -6.06992 l 6.81973,-0.60875 v -25.96999 l 140.766606,0.0351 v 27.5885 h 9.15293 c 0.0351,2.07971 0.0811,4.84415 0.0811,4.84415 h 21.52427 v -59.7762 c 0.7752,-2.053 1.31986,-4.11894 1.91203,-5.94692 2.08009,-6.42113 2.44171,-32.0151 2.44171,-32.0151 l -1.71824,-3.1657 c 0,0 0.36191,-5.69725 -3.16519,-16.91163 -1.93628,-6.15639 -8.45423,-16.132965 -11.35589,-20.212722 2.74082,-8.245408 3.94413,-14.381957 1.91202,-23.895698 -2.29817,-10.651957 -6.16616,-14.702139 -11.49025,-20.853683 l -1.31361,-7.841206 c 0,0 -2.17068,-4.250742 -6.96392,-7.325651 -4.79324,-3.074908 -8.59172,-3.888652 -8.59172,-3.888652 0,0 -33.4621,-3.979098 -62.04066,-3.707784 z"
       sodipodi:nodetypes="cscczcscccccccccccccccsccsccccsccc"
       inkscape:label="Outline" /><path
       style="fill:#26191a;fill-opacity:1;stroke-width:2;stroke-linecap:round;stroke-linejoin:round;stroke-miterlimit:35.2;paint-order:stroke fill markers"
       d="m 16.098051,184.76583 14.379721,16.64068 142.697928,0.0349 24.42878,-22.12658 z"
       id="path2"
       inkscape:label="Below" /><path
       style="opacity:1;fill:#10151e;fill-opacity:1;stroke-width:2;stroke-linecap:round;stroke-linejoin:round;stroke-miterlimit:35.2;paint-order:stroke fill markers"
       d="M 19.84375,228.40983 31.41927,227.3763 V 187.48209 H 18.39681 Z"
       id="path5"
       inkscape:label="LeftRearTire" /><path
       style="opacity:1;fill:#191e26;fill-opacity:1;stroke-width:2;stroke-linecap:round;stroke-linejoin:round;stroke-miterlimit:35.2;paint-order:stroke fill markers"
       d="m 1.0852619,170.20524 v 63.84957 H 24.599269 v -51.15712 z"
       id="path3"
       sodipodi:nodetypes="ccccc"
       inkscape:label="LeftFrontTire" /><path
       style="opacity:1;fill:#10151e;fill-opacity:1;stroke-width:2;stroke-linecap:round;stroke-linejoin:round;stroke-miterlimit:35.2;paint-order:stroke fill markers"
       d="m 172.18587,198.4375 v 30.59245 h 14.05599 v -44.64844 z"
       id="path6"
       inkscape:label="RightRearTire" /><path
       style="opacity:1;fill:#191e26;fill-opacity:1;stroke-width:2;stroke-linecap:round;stroke-linejoin:round;stroke-miterlimit:35.2;paint-order:stroke fill markers"
       d="m 202.94397,169.66261 v 64.21132 h -21.52436 c 0,0 -0.90438,-47.9324 0,-53.72046 z"
       id="path4"
       sodipodi:nodetypes="ccccc"
       inkscape:label="RightFrontTire" /><path
       style="fill:#c12d38;fill-opacity:1;stroke-width:2;stroke-linecap:round;stroke-linejoin:round;stroke-miterlimit:35.2;paint-order:stroke fill markers"
       d="m 26.059161,185.96737 c 0,0 -10.12911,0.99482 -14.560596,-2.8036 -4.4314863,-3.79841 -9.1342878,-9.58648 -10.1291111,-14.19884 -0.99482342,-4.61236 -0.72350796,-34.81882 -0.72350796,-34.81882 0,0 3.88885486,-15.01279 8.77253346,-26.58891 C 14.302158,95.981067 16.472681,94.986241 16.472681,94.986241 l 9.58648,-52.183008 c 0,0 2.622717,-3.888854 7.687271,-6.782885 5.064556,-2.894033 40.245127,-7.415956 68.823688,-7.687273 28.57856,-0.271314 62.0408,3.70798 62.0408,3.70798 0,0 3.79842,0.813945 8.59166,3.888853 4.79324,3.074909 6.96376,7.325519 6.96376,7.325519 l 9.49604,51.188183 c 0,0 9.22473,10.40043 12.75183,21.6148 3.5271,11.21438 3.16535,16.912 3.16535,16.912 l 1.71833,3.16535 c 0,0 -0.36175,25.59409 -2.44184,32.01522 -2.08008,6.42114 -3.16535,15.82674 -18.17814,17.00244 -15.01279,1.1757 -160.618749,0.81395 -160.618749,0.81395 z"
       id="path1"
       inkscape:label="CarBody" /><path
       style="opacity:1;fill:#bccae1;fill-opacity:1;stroke-width:2;stroke-linecap:round;stroke-linejoin:round;stroke-miterlimit:35.2;paint-order:stroke fill markers"
       d="m 27.698567,77.928059 3.927409,-23.151041 c 0,0 0.413412,-2.273763 3.20394,-5.064289 2.790526,-2.790529 12.402344,-10.335287 66.662594,-10.335287 54.26026,0 65.6449,7.61397 65.6449,7.61397 0,0 6.23702,3.754845 7.32222,16.984012 1.08521,13.229166 3.10059,17.001545 -0.67179,19.430338 -3.77238,2.42879 -40.7727,-2.015382 -71.52018,-2.015382 -30.747479,0 -65.577392,3.617349 -65.577392,3.617349 0,0 -4.134115,0.31006 -6.562908,-2.067057 -2.428793,-2.377114 -2.428793,-5.012613 -2.428793,-5.012613 z"
       id="path7"
       inkscape:label="Windshield" /><path
       style="opacity:1;fill:#c9daf5;fill-opacity:1;stroke-width:2;stroke-linecap:round;stroke-linejoin:round;stroke-miterlimit:35.2;paint-order:stroke fill markers"
       d="m 2.997233,175.28646 c 0,0 57.774251,-2.06706 98.288577,-2.06706 40.51432,0 99.63216,2.48047 99.63216,2.48047 0,0 2.39479,-3.92178 2.54096,-5.74882 0.14616,-1.82703 -3.69062,-6.7235 -7.12545,-7.56393 -3.43483,-0.84044 -65.3854,-1.77677 -93.80744,-1.77677 -28.422036,0 -87.229816,-2.06706 -95.0846338,1.24023 -7.85481765,3.3073 -6.61458329,8.68164 -6.61458329,8.68164 z"
       id="path8"
       inkscape:label="Bumper" /><path
       style="opacity:1;fill:#b4bccb;fill-opacity:1;stroke-width:2;stroke-linecap:round;stroke-linejoin:round;stroke-miterlimit:35.2;paint-order:stroke fill markers"
       d="m 50.849609,174.76969 1.033528,-23.6678 c 0,0 0.620118,-1.65365 3.307292,-1.65365 2.687174,0 3.307292,2.99723 3.307292,2.99723 l 0.930177,22.01416 c 0,0 -1.757,1.13689 -4.340821,1.13689 -2.583822,0 -4.237468,-0.82683 -4.237468,-0.82683 z"
       id="path9"
       inkscape:label="LeftBumperBrace" /><path
       style="fill:#b4bccb;fill-opacity:1;stroke-width:2;stroke-linecap:round;stroke-linejoin:round;stroke-miterlimit:35.2;paint-order:stroke fill markers"
       d="m 146.64531,175.05908 1.03353,-23.6678 c 0,0 0.62012,-1.65365 3.30729,-1.65365 2.68718,0 3.30729,2.99723 3.30729,2.99723 l 0.93018,22.01416 c 0,0 -1.757,1.13689 -4.34082,1.13689 -2.58382,0 -4.23747,-0.82683 -4.23747,-0.82683 z"
       id="path9-7"
       inkscape:label="RightBumperBrace" /><path
       style="opacity:1;fill:#aa3039;fill-opacity:1;stroke-width:2;stroke-linecap:round;stroke-linejoin:round;stroke-miterlimit:35.2;paint-order:stroke fill markers"
       d="m 18.85503,96.906084 c -0.876978,0.292325 -7.161988,9.792926 -7.161988,9.792926 0,0 17.539561,-7.454319 25.870853,-1.16931 8.331293,6.28501 9.062109,12.57002 9.062109,12.57002 0,0 45.018211,-4.09256 55.834276,-4.09256 10.81606,0 57.00358,3.9464 57.00358,3.9464 0,0 0.73081,-11.40072 10.52373,-13.73932 9.79293,-2.33861 26.60167,2.63093 26.60167,2.63093 l -7.74664,-11.254555 c 0,0 -55.83427,-8.623617 -84.33606,-8.623617 -28.501789,0 -85.65153,9.939086 -85.65153,9.939086 z"
       id="path10"
       inkscape:label="Hood" /><path
       id="path11"
       style="opacity:1;fill:#ffeff0;fill-opacity:1;stroke-width:1.8285;stroke-linecap:round;stroke-linejoin:round;stroke-miterlimit:35.2;paint-order:stroke fill markers"
       d="m 61.053323,41.395485 c -19.738386,-4.547324 -39.24657,9.123582 -43.572748,30.53482 -2.726659,13.630925 1.343281,27.765343 10.720232,37.230085 10.107175,-9.671602 20.27841,-20.149287 41.103754,-22.755072 7.844579,0.991096 12.400261,4.84047 17.214418,9.705043 1.055131,-2.475115 1.872978,-5.059648 2.440613,-7.712741 C 93.285773,66.986381 80.79171,45.942808 61.053323,41.395485 Z"
       sodipodi:nodetypes="scccccs"
       inkscape:label="LeftEye" /><path
       id="path12"
       style="opacity:1;fill:#26191a;fill-opacity:1;stroke-width:2.33631;stroke-linecap:round;stroke-linejoin:round;stroke-miterlimit:35.2;paint-order:stroke fill markers"
       d="m 66.165079,53.457079 c -14.714617,-1.562842 -27.845334,9.741096 -29.328126,25.24792 -0.51515,5.400462 -0.717586,16.791987 1.628135,21.624061 9.415532,-4.970269 15.979784,-8.559184 27.954272,-9.881747 6.554927,-0.723982 10.451047,-0.378236 20.2399,6.088237 2.180601,-3.655457 3.037187,-7.877128 3.463333,-12.171481 1.482979,-15.506561 -9.243135,-29.344053 -23.957514,-30.90699 z"
       sodipodi:nodetypes="cccsccc"
       inkscape:label="LeftPupil" /><path
       id="path11-6"
       style="fill:#ffeff0;fill-opacity:1;stroke-width:1.8285;stroke-linecap:round;stroke-linejoin:round;stroke-miterlimit:35.2;paint-order:stroke fill markers"
       d="m 149.454,41.932041 c 19.73839,-4.547324 39.24657,9.123582 43.57275,30.53482 2.72666,13.630926 -1.34328,27.765349 -10.72023,37.230089 -10.10718,-9.6716 -20.27842,-20.149293 -41.10376,-22.755073 -7.84458,0.99109 -12.40026,4.84047 -17.21442,9.70504 -1.05513,-2.47511 -1.87297,-5.05965 -2.44062,-7.71274 -4.32617,-21.41124 8.16789,-42.454813 27.90628,-47.002136 z"
       sodipodi:nodetypes="scccccs"
       inkscape:label="RightEye" /><path
       id="path12-0"
       style="fill:#26191a;fill-opacity:1;stroke-width:2.33631;stroke-linecap:round;stroke-linejoin:round;stroke-miterlimit:35.2;paint-order:stroke fill markers"
       d="m 144.49769,53.782039 c 14.71461,-1.562842 27.84533,9.741096 29.32812,25.24792 0.51515,5.400462 0.71759,16.791987 -1.62813,21.624061 -9.41553,-4.970269 -15.97979,-8.559184 -27.95427,-9.881747 -6.55493,-0.723982 -10.45105,-0.378236 -20.2399,6.088237 -2.18061,-3.655457 -3.03719,-7.877128 -3.46334,-12.171481 -1.48298,-15.506561 9.24314,-29.344053 23.95752,-30.90699 z"
       sodipodi:nodetypes="cccsccc"
       inkscape:label="RightPupil" /><path
       style="opacity:1;fill:#26191a;fill-opacity:1;stroke-width:2;stroke-linecap:round;stroke-linejoin:round;stroke-miterlimit:35.2;paint-order:stroke fill markers"
       d="m 40.927734,121.7522 c 0,17.15657 11.162109,36.79361 60.151366,36.79361 48.98926,0 62.01172,-21.08398 62.01172,-34.93326 0,-13.84929 -9.92188,-15.60629 -18.39681,-15.60629 -8.47494,0 -40.33054,13.94618 -40.33054,13.94618 0,0 -28.502468,-14.25624 -46.072455,-14.25624 -17.569987,0 -17.363281,14.056 -17.363281,14.056 z"
       id="path13"
       sodipodi:nodetypes="cssscsc"
       inkscape:label="Mouth" /><path
       style="opacity:1;fill:#eacdcf;fill-opacity:1;stroke-width:2;stroke-linecap:round;stroke-linejoin:round;stroke-miterlimit:35.2;paint-order:stroke fill markers"
       d="m 98.352527,119.18611 -57.321439,0.29233 c 0,0 1.963703,-10.05107 12.789916,-11.4205 10.826213,-1.36943 25.368982,2.42163 44.531523,11.12817 z"
       id="path14"
       sodipodi:nodetypes="ccsc"
       inkscape:label="LeftTooth" /><path
       style="opacity:1;fill:#eacdcf;fill-opacity:1;stroke-width:2;stroke-linecap:round;stroke-linejoin:round;stroke-miterlimit:35.2;paint-order:stroke fill markers"
       d="m 109.49331,119.74299 53.1841,-0.62012 c 0,0 -0.91291,-8.80096 -10.9554,-10.59984 -8.33125,-1.49235 -13.19294,0.35251 -23.52595,3.91854 -10.13666,3.49828 -18.70275,7.30142 -18.70275,7.30142 z"
       id="path15"
       sodipodi:nodetypes="ccssc"
       inkscape:label="RightTooth" /><path
       style="opacity:1;fill:#e34667;fill-opacity:1;stroke-width:2;stroke-linecap:round;stroke-linejoin:round;stroke-miterlimit:35.2;paint-order:stroke fill markers"
       d="m 78.803274,156.87206 c 0,0 -11.933692,-9.39357 -9.88741,-18.01718 2.046282,-8.62362 26.565129,-5.51766 33.179006,1.09622 6.61388,6.61387 -0.58465,2.41169 -0.58465,2.41169 0,0 9.93908,-10.45066 27.69789,-10.45066 17.75881,0 10.62049,13.16621 5.02672,18.75998 -5.59377,5.59377 -12.18871,6.48968 -12.18871,6.48968 0,0 -11.09648,1.37687 -20.08524,1.43351 -9.622415,0.0606 -18.390727,-0.82799 -23.157606,-1.72324 z"
       id="path16"
       sodipodi:nodetypes="csscsscsc"
       inkscape:label="Tongue" /></g></svg>
