<?xml version="1.0" encoding="UTF-8" standalone="no"?>
<!-- Created with Inkscape (http://www.inkscape.org/) -->

<svg
   width="1057.3665mm"
   height="372.04907mm"
   viewBox="0 0 1057.3665 372.04907"
   version="1.1"
   id="svg1"
   xml:space="preserve"
   inkscape:version="1.4 (e7c3feb100, 2024-10-09)"
   sodipodi:docname="Banner.svg"
   inkscape:export-filename="Banner.png"
   inkscape:export-xdpi="73.730003"
   inkscape:export-ydpi="73.730003"
   xmlns:inkscape="http://www.inkscape.org/namespaces/inkscape"
   xmlns:sodipodi="http://sodipodi.sourceforge.net/DTD/sodipodi-0.dtd"
   xmlns:xlink="http://www.w3.org/1999/xlink"
   xmlns="http://www.w3.org/2000/svg"
   xmlns:svg="http://www.w3.org/2000/svg"><sodipodi:namedview
     id="namedview1"
     pagecolor="#ffffff"
     bordercolor="#000000"
     borderopacity="0.25"
     inkscape:showpageshadow="2"
     inkscape:pageopacity="0.0"
     inkscape:pagecheckerboard="0"
     inkscape:deskcolor="#d1d1d1"
     inkscape:document-units="mm"
     inkscape:zoom="0.16"
     inkscape:cx="1543.75"
     inkscape:cy="162.5"
     inkscape:window-width="1920"
     inkscape:window-height="1043"
     inkscape:window-x="0"
     inkscape:window-y="0"
     inkscape:window-maximized="1"
     inkscape:current-layer="layer1" /><defs
     id="defs1"><linearGradient
       id="linearGradient1"
       inkscape:collect="always"><stop
         style="stop-color:#fff8f9;stop-opacity:1;"
         offset="0"
         id="stop1" /><stop
         style="stop-color:#26191a;stop-opacity:0;"
         offset="1"
         id="stop2" /></linearGradient><linearGradient
       inkscape:collect="always"
       xlink:href="#linearGradient1"
       id="linearGradient2"
       x1="258.9335"
       y1="153.1526"
       x2="856.93964"
       y2="153.1526"
       gradientUnits="userSpaceOnUse" /></defs><g
     inkscape:label="Layer 1"
     inkscape:groupmode="layer"
     id="layer1"
     transform="translate(98.514421,61.348733)"><g
       id="path2-6"
       inkscape:label="Outline"
       style="stroke-width:18.6;stroke-dasharray:none"><path
         style="opacity:1;fill:#c4eeee;fill-opacity:1;stroke:none;stroke-width:18.6;stroke-linecap:round;stroke-linejoin:round;stroke-miterlimit:35.2;stroke-dasharray:none;stroke-opacity:1;paint-order:stroke fill markers"
         d="m -21.024808,227.67976 c 0,0 -90.036422,-51.44939 -76.004771,-141.485814 14.031651,-90.0364214 265.432039,-142.655109 438.489049,-146.163021 173.05702,-3.507912 434.98116,-2.338607 494.61568,28.0633 C 895.70966,-1.5038664 964.6986,3.1733496 943.65113,99.056286 922.60366,194.93924 768.25551,238.20349 768.25551,238.20349 Z"
         id="path20" /><path
         style="opacity:1;fill:#3c7b2d;fill-opacity:1;stroke:none;stroke-width:18.6;stroke-linecap:round;stroke-linejoin:round;stroke-miterlimit:35.2;stroke-dasharray:none;stroke-opacity:1;paint-order:stroke fill markers"
         d="m -50.257413,245.21931 c 0,0 160.194673,-94.71364 284.140913,-93.54433 123.94624,1.1693 184.75006,76.00477 256.07762,83.02059 71.32754,7.01583 222.16779,-163.702579 328.57445,-154.348145 106.40669,9.354434 140.31651,44.433555 140.31651,44.433555 l -23.38607,185.91937 -982.215511,-7.01582 z"
         id="path19" /><path
         style="opacity:1;fill:#1a2a34;fill-opacity:1;stroke:none;stroke-width:18.6;stroke-linecap:round;stroke-linejoin:round;stroke-miterlimit:35.2;stroke-dasharray:none;stroke-opacity:1;paint-order:stroke fill markers"
         d="m 226.86768,150.50567 28.64795,155.22514 -301.388151,-2.04628 -4.384892,-58.46522 67.527315,-36.54075 z"
         id="path21" /></g><path
       style="stroke:#ffffff;stroke-width:18.6;stroke-linecap:round;stroke-linejoin:round;stroke-miterlimit:35.2;stroke-dasharray:none;stroke-opacity:1;paint-order:stroke fill markers"
       d="m 102.47266,18.333984 c -14.77764,0.140295 -30.960264,1.362007 -44.298832,2.927735 -6.669284,0.782864 -12.609253,1.647194 -17.400391,2.544922 -4.791137,0.897727 -7.367915,0.889926 -11.990234,3.53125 -7.123923,4.070816 -11.017578,9.873046 -11.017578,9.873046 a 10.001,10.001 0 0 0 -1.558594,3.863282 l -2.240234,12.77539 C 9.8380579,61.293699 7.7898241,67.400979 6.8945312,72.449219 5.7151025,79.099609 6.6489909,85.026366 7.1972656,89.365234 6.8956045,91.291582 6.4231785,92.460101 5.390625,94.25 c -1.1800837,2.045638 -3.3214157,4.996606 -5.1875,9.41992 -5.348204,12.67721 -9.2402344,27.96875 -9.2402344,27.96875 a 10.001,10.001 0 0 0 -0.3183594,2.42188 c 0,0 -0.057098,6.54634 -0.015625,14.03125 0.037314,6.73421 0.1300568,13.53618 0.5214844,18.51757 -0.5660686,3.30559 -0.072266,6.15625 -0.072266,6.15625 a 10.001,10.001 0 0 0 0.6503906,1.91993 l -0.6445312,-1.41211 v 60.78125 a 10.001,10.001 0 0 0 10,10 H 24.597656 A 10.001,10.001 0 0 0 33.273437,237.25 l -0.966796,0.0859 a 10.001,10.001 0 0 0 1.171875,-0.58008 10.001,10.001 0 0 0 1.11914,-2.70117 v 2.14843 a 10.001,10.001 0 0 0 6.820313,-8.82617 V 211.4082 l 120.765621,0.0312 v 17.58985 a 10.001,10.001 0 0 0 10,10 h 1.375 a 10.001,10.001 0 0 0 7.85938,4.84375 h 21.52344 a 10.001,10.001 0 0 0 10,-10 v -58.23438 c 0.53655,-1.64468 1.10526,-3.41683 1.42578,-4.40625 1.09406,-3.37731 1.3442,-6.23659 1.69726,-9.80859 0.35306,-3.572 0.59913,-7.50064 0.7793,-11.20313 0.36033,-7.40496 0.45117,-13.94336 0.45117,-13.94336 a 10.001,10.001 0 0 0 -1.21094,-4.91211 l -0.75,-1.38281 c -0.19031,-3.29282 -0.74833,-8.54754 -3.38281,-16.92383 -2.3185,-7.37166 -6.58817,-13.950404 -10.01562,-18.919918 1.94731,-7.367388 2.76443,-15.138948 0.8125,-24.277344 a 10.001,10.001 0 0 0 -0.004,-0.01953 C 200.38235,58.894941 195.55496,52.30002 190.89258,46.773437 l -0.86524,-5.169921 a 10.001,10.001 0 0 0 -0.95703,-2.896485 c 0,0 -3.30696,-6.599706 -10.4707,-11.195312 -6.1393,-3.93842 -11.89649,-5.25 -11.89649,-5.25 a 10.001,10.001 0 0 0 -0.91406,-0.150391 c 0,0 -33.73565,-4.058172 -63.3164,-3.777344 z m 0.1914,19.998047 c 27.14499,-0.257704 59.12397,3.459958 60.13672,3.578125 0.34674,0.07587 1.91869,0.458859 5,2.435547 1.51588,0.972449 2.3281,1.905808 2.84375,2.599609 l 0.9707,5.802735 a 10.001,10.001 0 0 0 2.30079,4.892578 c 5.46916,6.319167 7.35556,7.517195 9.27539,16.410156 6.8e-4,0.0032 0.001,0.0046 0.002,0.0078 1.67393,7.849536 0.91932,10.972672 -1.62695,18.632812 a 10.001,10.001 0 0 0 1.34179,8.949227 c 2.53831,3.56887 9.02791,14.43897 9.96485,17.41796 3.17753,10.10294 2.72461,13.27735 2.72461,13.27735 a 10.001,10.001 0 0 0 1.1914,5.40429 l 0.42578,0.78516 c -0.0324,1.77069 -0.0722,5.06346 -0.34765,10.72461 -0.17025,3.49865 -0.40531,7.17227 -0.70508,10.20508 -0.29977,3.03281 -0.87628,5.78002 -0.82227,5.61328 -0.7189,2.21921 -1.21506,4.06905 -1.7539,5.49609 a 10.001,10.001 0 0 0 -0.64453,3.53321 v 49.77539 h -3.7461 a 10.001,10.001 0 0 0 -7.01172,-4.4961 V 201.4414 a 10.001,10.001 0 0 0 -9.99804,-10 L 31.419972,191.4062 a 10.001,10.001 0 0 0 -10.001953,10 v 16.82227 l 2.291015,-0.20313 a 10.001,10.001 0 0 0 -7.583984,6.0293 h -5.041016 v -52.95508 a 10.001,10.001 0 0 0 -0.238281,-1.0918 10.001,10.001 0 0 0 0.292969,-3.63867 c -0.246279,-2.33713 -0.469204,-11.06833 -0.509766,-18.38867 -0.03666,-6.61638 0.0035,-11.35647 0.01172,-12.42774 0.449357,-1.67984 3.851534,-14.29913 7.990234,-24.10937 0.891866,-2.11406 2.23876,-4.00058 4.083985,-7.19922 1.845225,-3.19864 3.898375,-7.789829 4.523437,-13.423831 a 10.001,10.001 0 0 0 -0.002,-2.214843 c -0.520725,-4.656368 -0.922323,-11.130696 -0.650395,-12.66401 0.601219,-3.390057 1.656688,-7.03813 5.587891,-13.759765 a 10.001,10.001 0 0 0 1.21875,-3.320313 l 2.052734,-11.703125 c 0.593645,-0.585512 1.588955,-1.325769 2.708985,-2.041016 0.37407,-0.0067 3.22176,-1.075053 6.302734,-1.652343 4.12271,-0.772483 9.715623,-1.596659 16.046875,-2.339844 12.662506,-1.486369 28.359233,-2.661947 42.160154,-2.792969 z m -92.365232,129.158199 0.273438,0.8086 c 0,0 -0.01705,0.33758 -0.0078,0.41797 a 10.001,10.001 0 0 0 -0.265625,-1.22657 z"
       id="path17" /><path
       style="fill:#26191a;stroke-width:18.6;stroke-linecap:round;stroke-linejoin:round;stroke-miterlimit:35.2;stroke-dasharray:none;paint-order:stroke fill markers"
       d="m 102.56832,28.333034 c -28.57856,0.271317 -63.759146,4.792837 -68.823706,7.68687 -5.06455,2.894031 -7.68739,6.783048 -7.68739,6.783048 l -2.514521,14.329779 c -4.3903,7.506606 -6.018358,12.639894 -6.802723,17.062651 -0.784364,4.422757 0.05479,11.013695 0.558939,15.521923 -0.905885,8.165192 -5.124585,11.302465 -7.8825351,17.839835 -4.88368,11.57612 -8.77258997,26.58856 -8.77258997,26.58856 0,0 -0.2217,25.94961 0.54983997,33.27135 -0.67868997,1.76373 -0.36896997,3.11506 -0.36896997,3.11506 L 1.0835539,171.099 v 62.95585 H 24.597374 v -6.06992 l 6.81973,-0.60875 v -25.96999 l 140.766606,0.0351 v 27.5885 h 9.15293 c 0.0351,2.07971 0.0811,4.84415 0.0811,4.84415 h 21.52427 v -59.7762 c 0.7752,-2.053 1.31986,-4.11894 1.91203,-5.94692 2.08009,-6.42113 2.44171,-32.0151 2.44171,-32.0151 l -1.71824,-3.1657 c 0,0 0.36191,-5.69725 -3.16519,-16.91163 -1.93628,-6.15639 -8.45423,-16.132965 -11.35589,-20.212722 2.74082,-8.245408 3.94413,-14.381957 1.91202,-23.895698 -2.29817,-10.651957 -6.16616,-14.702139 -11.49025,-20.853683 l -1.31361,-7.841206 c 0,0 -2.17068,-4.250742 -6.96392,-7.325651 -4.79324,-3.074908 -8.59172,-3.888652 -8.59172,-3.888652 0,0 -33.4621,-3.979098 -62.04066,-3.707784 z"
       id="path18" /><path
       style="fill:#26191a;fill-opacity:1;stroke-width:2;stroke-linecap:round;stroke-linejoin:round;stroke-miterlimit:35.2;paint-order:stroke fill markers"
       d="m 16.098051,184.76583 14.379721,16.64068 142.697928,0.0349 24.42878,-22.12658 z"
       id="path2"
       inkscape:label="Below" /><path
       style="opacity:1;fill:#10151e;fill-opacity:1;stroke-width:2;stroke-linecap:round;stroke-linejoin:round;stroke-miterlimit:35.2;paint-order:stroke fill markers"
       d="M 19.84375,228.40983 31.41927,227.3763 V 187.48209 H 18.39681 Z"
       id="path5"
       inkscape:label="LeftRearTire" /><path
       style="opacity:1;fill:#191e26;fill-opacity:1;stroke-width:2;stroke-linecap:round;stroke-linejoin:round;stroke-miterlimit:35.2;paint-order:stroke fill markers"
       d="m 1.0852619,170.20524 v 63.84957 H 24.599269 v -51.15712 z"
       id="path3"
       sodipodi:nodetypes="ccccc"
       inkscape:label="LeftFrontTire" /><path
       style="opacity:1;fill:#10151e;fill-opacity:1;stroke-width:2;stroke-linecap:round;stroke-linejoin:round;stroke-miterlimit:35.2;paint-order:stroke fill markers"
       d="m 172.18587,198.4375 v 30.59245 h 14.05599 v -44.64844 z"
       id="path6"
       inkscape:label="RightRearTire" /><path
       style="opacity:1;fill:#191e26;fill-opacity:1;stroke-width:2;stroke-linecap:round;stroke-linejoin:round;stroke-miterlimit:35.2;paint-order:stroke fill markers"
       d="m 202.94397,169.66261 v 64.21132 h -21.52436 c 0,0 -0.90438,-47.9324 0,-53.72046 z"
       id="path4"
       sodipodi:nodetypes="ccccc"
       inkscape:label="RightFrontTire" /><path
       style="fill:#c12d38;fill-opacity:1;stroke-width:2;stroke-linecap:round;stroke-linejoin:round;stroke-miterlimit:35.2;paint-order:stroke fill markers"
       d="m 26.059161,185.96737 c 0,0 -10.12911,0.99482 -14.560596,-2.8036 -4.4314863,-3.79841 -9.1342878,-9.58648 -10.1291111,-14.19884 -0.99482342,-4.61236 -0.72350796,-34.81882 -0.72350796,-34.81882 0,0 3.88885486,-15.01279 8.77253346,-26.58891 C 14.302158,95.981067 16.472681,94.986241 16.472681,94.986241 l 9.58648,-52.183008 c 0,0 2.622717,-3.888854 7.687271,-6.782885 5.064556,-2.894033 40.245127,-7.415956 68.823688,-7.687273 28.57856,-0.271314 62.0408,3.70798 62.0408,3.70798 0,0 3.79842,0.813945 8.59166,3.888853 4.79324,3.074909 6.96376,7.325519 6.96376,7.325519 l 9.49604,51.188183 c 0,0 9.22473,10.40043 12.75183,21.6148 3.5271,11.21438 3.16535,16.912 3.16535,16.912 l 1.71833,3.16535 c 0,0 -0.36175,25.59409 -2.44184,32.01522 -2.08008,6.42114 -3.16535,15.82674 -18.17814,17.00244 -15.01279,1.1757 -160.618749,0.81395 -160.618749,0.81395 z"
       id="path1"
       inkscape:label="CarBody" /><path
       style="opacity:1;fill:#bccae1;fill-opacity:1;stroke-width:2;stroke-linecap:round;stroke-linejoin:round;stroke-miterlimit:35.2;paint-order:stroke fill markers"
       d="m 27.698567,77.928059 3.927409,-23.151041 c 0,0 0.413412,-2.273763 3.20394,-5.064289 2.790526,-2.790529 12.402344,-10.335287 66.662594,-10.335287 54.26026,0 65.6449,7.61397 65.6449,7.61397 0,0 6.23702,3.754845 7.32222,16.984012 1.08521,13.229166 3.10059,17.001545 -0.67179,19.430338 -3.77238,2.42879 -40.7727,-2.015382 -71.52018,-2.015382 -30.747479,0 -65.577392,3.617349 -65.577392,3.617349 0,0 -4.134115,0.31006 -6.562908,-2.067057 -2.428793,-2.377114 -2.428793,-5.012613 -2.428793,-5.012613 z"
       id="path7"
       inkscape:label="Windshield" /><path
       style="opacity:1;fill:#c9daf5;fill-opacity:1;stroke-width:2;stroke-linecap:round;stroke-linejoin:round;stroke-miterlimit:35.2;paint-order:stroke fill markers"
       d="m 2.997233,175.28646 c 0,0 57.774251,-2.06706 98.288577,-2.06706 40.51432,0 99.63216,2.48047 99.63216,2.48047 0,0 2.39479,-3.92178 2.54096,-5.74882 0.14616,-1.82703 -3.69062,-6.7235 -7.12545,-7.56393 -3.43483,-0.84044 -65.3854,-1.77677 -93.80744,-1.77677 -28.422036,0 -87.229816,-2.06706 -95.0846338,1.24023 -7.85481765,3.3073 -6.61458329,8.68164 -6.61458329,8.68164 z"
       id="path8"
       inkscape:label="Bumper" /><path
       style="opacity:1;fill:#b4bccb;fill-opacity:1;stroke-width:2;stroke-linecap:round;stroke-linejoin:round;stroke-miterlimit:35.2;paint-order:stroke fill markers"
       d="m 50.849609,174.76969 1.033528,-23.6678 c 0,0 0.620118,-1.65365 3.307292,-1.65365 2.687174,0 3.307292,2.99723 3.307292,2.99723 l 0.930177,22.01416 c 0,0 -1.757,1.13689 -4.340821,1.13689 -2.583822,0 -4.237468,-0.82683 -4.237468,-0.82683 z"
       id="path9"
       inkscape:label="LeftBumperBrace" /><path
       style="fill:#b4bccb;fill-opacity:1;stroke-width:2;stroke-linecap:round;stroke-linejoin:round;stroke-miterlimit:35.2;paint-order:stroke fill markers"
       d="m 146.64531,175.05908 1.03353,-23.6678 c 0,0 0.62012,-1.65365 3.30729,-1.65365 2.68718,0 3.30729,2.99723 3.30729,2.99723 l 0.93018,22.01416 c 0,0 -1.757,1.13689 -4.34082,1.13689 -2.58382,0 -4.23747,-0.82683 -4.23747,-0.82683 z"
       id="path9-7"
       inkscape:label="RightBumperBrace" /><path
       style="opacity:1;fill:#aa3039;fill-opacity:1;stroke-width:2;stroke-linecap:round;stroke-linejoin:round;stroke-miterlimit:35.2;paint-order:stroke fill markers"
       d="m 18.85503,96.906084 c -0.876978,0.292325 -7.161988,9.792926 -7.161988,9.792926 0,0 17.539561,-7.454319 25.870853,-1.16931 8.331293,6.28501 9.062109,12.57002 9.062109,12.57002 0,0 45.018211,-4.09256 55.834276,-4.09256 10.81606,0 57.00358,3.9464 57.00358,3.9464 0,0 0.73081,-11.40072 10.52373,-13.73932 9.79293,-2.33861 26.60167,2.63093 26.60167,2.63093 l -7.74664,-11.254555 c 0,0 -55.83427,-8.623617 -84.33606,-8.623617 -28.501789,0 -85.65153,9.939086 -85.65153,9.939086 z"
       id="path10"
       inkscape:label="Hood" /><path
       id="path11"
       style="opacity:1;fill:#ffeff0;fill-opacity:1;stroke-width:1.8285;stroke-linecap:round;stroke-linejoin:round;stroke-miterlimit:35.2;paint-order:stroke fill markers"
       d="m 61.053323,41.395485 c -19.738386,-4.547324 -39.24657,9.123582 -43.572748,30.53482 -2.726659,13.630925 1.343281,27.765343 10.720232,37.230085 10.107175,-9.671602 20.27841,-20.149287 41.103754,-22.755072 7.844579,0.991096 12.400261,4.84047 17.214418,9.705043 1.055131,-2.475115 1.872978,-5.059648 2.440613,-7.712741 C 93.285773,66.986381 80.79171,45.942808 61.053323,41.395485 Z"
       sodipodi:nodetypes="scccccs"
       inkscape:label="LeftEye" /><path
       id="path12"
       style="opacity:1;fill:#26191a;fill-opacity:1;stroke-width:2.33631;stroke-linecap:round;stroke-linejoin:round;stroke-miterlimit:35.2;paint-order:stroke fill markers"
       d="m 66.165079,53.457079 c -14.714617,-1.562842 -27.845334,9.741096 -29.328126,25.24792 -0.51515,5.400462 -0.717586,16.791987 1.628135,21.624061 9.415532,-4.970269 15.979784,-8.559184 27.954272,-9.881747 6.554927,-0.723982 10.451047,-0.378236 20.2399,6.088237 2.180601,-3.655457 3.037187,-7.877128 3.463333,-12.171481 1.482979,-15.506561 -9.243135,-29.344053 -23.957514,-30.90699 z"
       sodipodi:nodetypes="cccsccc"
       inkscape:label="LeftPupil" /><path
       id="path11-6"
       style="fill:#ffeff0;fill-opacity:1;stroke-width:1.8285;stroke-linecap:round;stroke-linejoin:round;stroke-miterlimit:35.2;paint-order:stroke fill markers"
       d="m 149.454,41.932041 c 19.73839,-4.547324 39.24657,9.123582 43.57275,30.53482 2.72666,13.630926 -1.34328,27.765349 -10.72023,37.230089 -10.10718,-9.6716 -20.27842,-20.149293 -41.10376,-22.755073 -7.84458,0.99109 -12.40026,4.84047 -17.21442,9.70504 -1.05513,-2.47511 -1.87297,-5.05965 -2.44062,-7.71274 -4.32617,-21.41124 8.16789,-42.454813 27.90628,-47.002136 z"
       sodipodi:nodetypes="scccccs"
       inkscape:label="RightEye" /><path
       id="path12-0"
       style="fill:#26191a;fill-opacity:1;stroke-width:2.33631;stroke-linecap:round;stroke-linejoin:round;stroke-miterlimit:35.2;paint-order:stroke fill markers"
       d="m 144.49769,53.782039 c 14.71461,-1.562842 27.84533,9.741096 29.32812,25.24792 0.51515,5.400462 0.71759,16.791987 -1.62813,21.624061 -9.41553,-4.970269 -15.97979,-8.559184 -27.95427,-9.881747 -6.55493,-0.723982 -10.45105,-0.378236 -20.2399,6.088237 -2.18061,-3.655457 -3.03719,-7.877128 -3.46334,-12.171481 -1.48298,-15.506561 9.24314,-29.344053 23.95752,-30.90699 z"
       sodipodi:nodetypes="cccsccc"
       inkscape:label="RightPupil" /><path
       style="opacity:1;fill:#26191a;fill-opacity:1;stroke-width:2;stroke-linecap:round;stroke-linejoin:round;stroke-miterlimit:35.2;paint-order:stroke fill markers"
       d="m 40.927734,121.7522 c 0,17.15657 11.162109,36.79361 60.151366,36.79361 48.98926,0 62.01172,-21.08398 62.01172,-34.93326 0,-13.84929 -9.92188,-15.60629 -18.39681,-15.60629 -8.47494,0 -40.33054,13.94618 -40.33054,13.94618 0,0 -28.502468,-14.25624 -46.072455,-14.25624 -17.569987,0 -17.363281,14.056 -17.363281,14.056 z"
       id="path13"
       sodipodi:nodetypes="cssscsc"
       inkscape:label="Mouth" /><path
       style="opacity:1;fill:#eacdcf;fill-opacity:1;stroke-width:2;stroke-linecap:round;stroke-linejoin:round;stroke-miterlimit:35.2;paint-order:stroke fill markers"
       d="m 98.352527,119.18611 -57.321439,0.29233 c 0,0 1.963703,-10.05107 12.789916,-11.4205 10.826213,-1.36943 25.368982,2.42163 44.531523,11.12817 z"
       id="path14"
       sodipodi:nodetypes="ccsc"
       inkscape:label="LeftTooth" /><path
       style="opacity:1;fill:#eacdcf;fill-opacity:1;stroke-width:2;stroke-linecap:round;stroke-linejoin:round;stroke-miterlimit:35.2;paint-order:stroke fill markers"
       d="m 109.49331,119.74299 53.1841,-0.62012 c 0,0 -0.91291,-8.80096 -10.9554,-10.59984 -8.33125,-1.49235 -13.19294,0.35251 -23.52595,3.91854 -10.13666,3.49828 -18.70275,7.30142 -18.70275,7.30142 z"
       id="path15"
       sodipodi:nodetypes="ccssc"
       inkscape:label="RightTooth" /><path
       style="opacity:1;fill:#e34667;fill-opacity:1;stroke-width:2;stroke-linecap:round;stroke-linejoin:round;stroke-miterlimit:35.2;paint-order:stroke fill markers"
       d="m 78.803274,156.87206 c 0,0 -11.933692,-9.39357 -9.88741,-18.01718 2.046282,-8.62362 26.565129,-5.51766 33.179006,1.09622 6.61388,6.61387 -0.58465,2.41169 -0.58465,2.41169 0,0 9.93908,-10.45066 27.69789,-10.45066 17.75881,0 10.62049,13.16621 5.02672,18.75998 -5.59377,5.59377 -12.18871,6.48968 -12.18871,6.48968 0,0 -11.09648,1.37687 -20.08524,1.43351 -9.622415,0.0606 -18.390727,-0.82799 -23.157606,-1.72324 z"
       id="path16"
       sodipodi:nodetypes="csscsscsc"
       inkscape:label="Tongue" /><text
       xml:space="preserve"
       style="font-style:normal;font-variant:normal;font-weight:normal;font-stretch:normal;font-size:196.975px;font-family:Itim;-inkscape-font-specification:'Itim, Normal';font-variant-ligatures:normal;font-variant-caps:normal;font-variant-numeric:normal;font-variant-east-asian:normal;text-align:start;writing-mode:lr-tb;direction:ltr;text-anchor:start;opacity:1;fill:#26191a;fill-opacity:1;stroke:#ffffff;stroke-width:13.7942;stroke-linecap:round;stroke-linejoin:round;stroke-miterlimit:35.2;stroke-dasharray:none;stroke-opacity:1;paint-order:stroke fill markers"
       x="284.60101"
       y="199.94684"
       id="text1"><tspan
         sodipodi:role="line"
         id="tspan1"
         style="font-style:normal;font-variant:normal;font-weight:normal;font-stretch:normal;font-size:196.975px;font-family:Itim;-inkscape-font-specification:'Itim, Normal';font-variant-ligatures:normal;font-variant-caps:normal;font-variant-numeric:normal;font-variant-east-asian:normal;fill:#26191a;fill-opacity:1;stroke:#ffffff;stroke-width:13.7942;stroke-dasharray:none;stroke-opacity:1"
         x="284.60101"
         y="199.94684">CarHaj</tspan></text><circle
       style="opacity:1;fill:#ffd800;fill-opacity:1;stroke:none;stroke-width:18.6;stroke-linecap:round;stroke-linejoin:round;stroke-miterlimit:35.2;stroke-dasharray:none;stroke-opacity:1;paint-order:stroke fill markers"
       id="path22"
       cx="650.44812"
       cy="-11.150626"
       r="26.893995" /><path
       style="opacity:1;fill:#f9f7ef;fill-opacity:1;stroke:none;stroke-width:18.6;stroke-linecap:round;stroke-linejoin:round;stroke-miterlimit:35.2;stroke-dasharray:none;stroke-opacity:1;paint-order:stroke fill markers"
       d="m 288.45417,-5.0361186 h 121.12956 c 0,0 -0.26361,-32.3904634 -18.70065,-32.3904634 -18.43704,0 -20.19099,9.028718 -20.19099,9.028718 0,0 -2.92327,-23.532245 -23.53225,-23.532245 -20.60898,0 -26.16319,22.655268 -26.16319,22.655268 0,0 -8.66201,-15.918087 -27.57093,-15.918087 -18.9089,0 -37.91009,17.087392 -37.91009,17.087392 h 31.86354 l -49.98776,11.693041 h 41.5103 L 227.16,-5.5964312 Z"
       id="path23" /><path
       style="fill:#f1eee2;fill-opacity:1;stroke:none;stroke-width:15.3205;stroke-linecap:round;stroke-linejoin:round;stroke-miterlimit:35.2;stroke-dasharray:none;stroke-opacity:1;paint-order:stroke fill markers"
       d="m 422.38558,36.390019 h 97.29183 c 0,0 2.26334,-26.6794591 -12.92293,-26.6794591 -15.18626,0 -13.11696,7.4367971 -13.11696,7.4367971 0,0 -3.23468,-19.589805 -20.20994,-19.589805 -16.97525,0 -22.17027,18.867454 -22.17027,18.867454 0,0 -9.40852,-8.3572179 -24.98346,-8.3572179 -15.57493,0 -22.54424,9.3203539 -22.54424,9.3203539 l -8.72743,6.737474 19.5152,2.89388 -28.14934,8.909003 z"
       id="path23-7"
       sodipodi:nodetypes="ccscscsccccc" /></g></svg>
